<svg width="40" height="35" viewBox="0 0 40 35" fill="none" xmlns="http://www.w3.org/2000/svg">
<rect width="39.8404" height="35" transform="translate(0.159546)" fill="white"/>
<path d="M15.6198 11.5719H23.8827C25.5261 11.5719 26.896 12.8297 27.0361 14.4671L27.9277 24.8927C28.0858 26.7403 26.6287 28.3273 24.7744 28.3273H14.9339C13.1042 28.3273 11.6557 26.7803 11.7758 24.9546L12.4617 14.5291C12.5711 12.8654 13.9525 11.5719 15.6198 11.5719Z" stroke="#C4C4C4" stroke-width="1.11702"/>
<path fill-rule="evenodd" clip-rule="evenodd" d="M14.72 21.6546C14.72 24.2088 16.931 26.2794 19.6584 26.2794C22.3859 26.2794 24.5969 24.2088 24.5969 21.6545L14.72 21.6546Z" fill="#C4C4C4"/>
<circle cx="16.3956" cy="17.6862" r="0.930851" fill="#C4C4C4"/>
<circle cx="22.7449" cy="17.5882" r="0.930851" fill="#C4C4C4"/>
<mask id="path-5-inside-1" fill="white">
<path fill-rule="evenodd" clip-rule="evenodd" d="M13.9365 12.2872H25.4475C25.3429 8.97804 22.8061 6.32979 19.692 6.32979C16.578 6.32979 14.0412 8.97804 13.9365 12.2872Z"/>
</mask>
<path d="M13.9365 12.2872L12.8201 12.2519L12.7836 13.4043H13.9365V12.2872ZM25.4475 12.2872V13.4043H26.6004L26.564 12.2519L25.4475 12.2872ZM13.9365 13.4043H25.4475V11.1702H13.9365V13.4043ZM19.692 7.44681C22.133 7.44681 24.2432 9.54376 24.3311 12.3225L26.564 12.2519C26.4426 8.41232 23.4792 5.21277 19.692 5.21277V7.44681ZM15.053 12.3225C15.1409 9.54376 17.2511 7.44681 19.692 7.44681V5.21277C15.9048 5.21277 12.9415 8.41232 12.8201 12.2519L15.053 12.3225Z" fill="#C4C4C4" mask="url(#path-5-inside-1)"/>
</svg>
